# Blender 4.0.2
# www.blender.org
o Cylinder
v 0.000000 -0.500000 -0.500000
v 0.000000 0.500000 -0.500000
v 0.049009 -0.500000 -0.497592
v 0.049009 0.500000 -0.497592
v 0.097545 -0.500000 -0.490393
v 0.097545 0.500000 -0.490393
v 0.145142 -0.500000 -0.478470
v 0.145142 0.500000 -0.478470
v 0.191342 -0.500000 -0.461940
v 0.191342 0.500000 -0.461940
v 0.235698 -0.500000 -0.440961
v 0.235698 0.500000 -0.440961
v 0.277785 -0.500000 -0.415735
v 0.277785 0.500000 -0.415735
v 0.317197 -0.500000 -0.386505
v 0.317197 0.500000 -0.386505
v 0.353553 -0.500000 -0.353553
v 0.353553 0.500000 -0.353553
v 0.386505 -0.500000 -0.317197
v 0.386505 0.500000 -0.317197
v 0.415735 -0.500000 -0.277785
v 0.415735 0.500000 -0.277785
v 0.440961 -0.500000 -0.235698
v 0.440961 0.500000 -0.235698
v 0.461940 -0.500000 -0.191342
v 0.461940 0.500000 -0.191342
v 0.478470 -0.500000 -0.145142
v 0.478470 0.500000 -0.145142
v 0.490393 -0.500000 -0.097545
v 0.490393 0.500000 -0.097545
v 0.497592 -0.500000 -0.049009
v 0.497592 0.500000 -0.049009
v 0.500000 -0.500000 0.000000
v 0.500000 0.500000 0.000000
v 0.497592 -0.500000 0.049009
v 0.497592 0.500000 0.049009
v 0.490393 -0.500000 0.097545
v 0.490393 0.500000 0.097545
v 0.478470 -0.500000 0.145142
v 0.478470 0.500000 0.145142
v 0.461940 -0.500000 0.191342
v 0.461940 0.500000 0.191342
v 0.440961 -0.500000 0.235698
v 0.440961 0.500000 0.235698
v 0.415735 -0.500000 0.277785
v 0.415735 0.500000 0.277785
v 0.386505 -0.500000 0.317197
v 0.386505 0.500000 0.317197
v 0.353553 -0.500000 0.353553
v 0.353553 0.500000 0.353553
v 0.317197 -0.500000 0.386505
v 0.317197 0.500000 0.386505
v 0.277785 -0.500000 0.415735
v 0.277785 0.500000 0.415735
v 0.235698 -0.500000 0.440961
v 0.235698 0.500000 0.440961
v 0.191342 -0.500000 0.461940
v 0.191342 0.500000 0.461940
v 0.145142 -0.500000 0.478470
v 0.145142 0.500000 0.478470
v 0.097545 -0.500000 0.490393
v 0.097545 0.500000 0.490393
v 0.049009 -0.500000 0.497592
v 0.049009 0.500000 0.497592
v 0.000000 -0.500000 0.500000
v 0.000000 0.500000 0.500000
v -0.049009 -0.500000 0.497592
v -0.049009 0.500000 0.497592
v -0.097545 -0.500000 0.490393
v -0.097545 0.500000 0.490393
v -0.145142 -0.500000 0.478470
v -0.145142 0.500000 0.478470
v -0.191342 -0.500000 0.461940
v -0.191342 0.500000 0.461940
v -0.235698 -0.500000 0.440961
v -0.235698 0.500000 0.440961
v -0.277785 -0.500000 0.415735
v -0.277785 0.500000 0.415735
v -0.317197 -0.500000 0.386505
v -0.317197 0.500000 0.386505
v -0.353553 -0.500000 0.353553
v -0.353553 0.500000 0.353553
v -0.386505 -0.500000 0.317197
v -0.386505 0.500000 0.317197
v -0.415735 -0.500000 0.277785
v -0.415735 0.500000 0.277785
v -0.440961 -0.500000 0.235698
v -0.440961 0.500000 0.235698
v -0.461940 -0.500000 0.191342
v -0.461940 0.500000 0.191342
v -0.478470 -0.500000 0.145142
v -0.478470 0.500000 0.145142
v -0.490393 -0.500000 0.097545
v -0.490393 0.500000 0.097545
v -0.497592 -0.500000 0.049009
v -0.497592 0.500000 0.049009
v -0.500000 -0.500000 0.000000
v -0.500000 0.500000 0.000000
v -0.497592 -0.500000 -0.049009
v -0.497592 0.500000 -0.049009
v -0.490393 -0.500000 -0.097545
v -0.490393 0.500000 -0.097545
v -0.478470 -0.500000 -0.145142
v -0.478470 0.500000 -0.145142
v -0.461940 -0.500000 -0.191342
v -0.461940 0.500000 -0.191342
v -0.440961 -0.500000 -0.235698
v -0.440961 0.500000 -0.235698
v -0.415735 -0.500000 -0.277785
v -0.415735 0.500000 -0.277785
v -0.386505 -0.500000 -0.317197
v -0.386505 0.500000 -0.317197
v -0.353553 -0.500000 -0.353553
v -0.353553 0.500000 -0.353553
v -0.317197 -0.500000 -0.386505
v -0.317197 0.500000 -0.386505
v -0.277785 -0.500000 -0.415735
v -0.277785 0.500000 -0.415735
v -0.235698 -0.500000 -0.440961
v -0.235698 0.500000 -0.440961
v -0.191342 -0.500000 -0.461940
v -0.191342 0.500000 -0.461940
v -0.145142 -0.500000 -0.478470
v -0.145142 0.500000 -0.478470
v -0.097545 -0.500000 -0.490393
v -0.097545 0.500000 -0.490393
v -0.049009 -0.500000 -0.497592
v -0.049009 0.500000 -0.497592
vn -0.0000 -0.0000 -1.0000
vn 0.0980 -0.0000 -0.9952
vn 0.1951 -0.0000 -0.9808
vn 0.2903 -0.0000 -0.9569
vn 0.3827 -0.0000 -0.9239
vn 0.4714 -0.0000 -0.8819
vn 0.5556 -0.0000 -0.8315
vn 0.6344 -0.0000 -0.7730
vn 0.7071 -0.0000 -0.7071
vn 0.7730 -0.0000 -0.6344
vn 0.8315 -0.0000 -0.5556
vn 0.8819 -0.0000 -0.4714
vn 0.9239 -0.0000 -0.3827
vn 0.9569 -0.0000 -0.2903
vn 0.9808 -0.0000 -0.1951
vn 0.9952 -0.0000 -0.0980
vn 1.0000 -0.0000 -0.0000
vn 0.9952 -0.0000 0.0980
vn 0.9808 -0.0000 0.1951
vn 0.9569 -0.0000 0.2903
vn 0.9239 -0.0000 0.3827
vn 0.8819 -0.0000 0.4714
vn 0.8315 -0.0000 0.5556
vn 0.7730 -0.0000 0.6344
vn 0.7071 -0.0000 0.7071
vn 0.6344 -0.0000 0.7730
vn 0.5556 -0.0000 0.8315
vn 0.4714 -0.0000 0.8819
vn 0.3827 -0.0000 0.9239
vn 0.2903 -0.0000 0.9569
vn 0.1951 -0.0000 0.9808
vn 0.0980 -0.0000 0.9952
vn -0.0000 -0.0000 1.0000
vn -0.0980 -0.0000 0.9952
vn -0.1951 -0.0000 0.9808
vn -0.2903 -0.0000 0.9569
vn -0.3827 -0.0000 0.9239
vn -0.4714 -0.0000 0.8819
vn -0.5556 -0.0000 0.8315
vn -0.6344 -0.0000 0.7730
vn -0.7071 -0.0000 0.7071
vn -0.7730 -0.0000 0.6344
vn -0.8315 -0.0000 0.5556
vn -0.8819 -0.0000 0.4714
vn -0.9239 -0.0000 0.3827
vn -0.9569 -0.0000 0.2903
vn -0.9808 -0.0000 0.1951
vn -0.9952 -0.0000 0.0980
vn -1.0000 -0.0000 -0.0000
vn -0.9952 -0.0000 -0.0980
vn -0.9808 -0.0000 -0.1951
vn -0.9569 -0.0000 -0.2903
vn -0.9239 -0.0000 -0.3827
vn -0.8819 -0.0000 -0.4714
vn -0.8315 -0.0000 -0.5556
vn -0.7730 -0.0000 -0.6344
vn -0.7071 -0.0000 -0.7071
vn -0.6344 -0.0000 -0.7730
vn -0.5556 -0.0000 -0.8315
vn -0.4714 -0.0000 -0.8819
vn -0.3827 -0.0000 -0.9239
vn -0.2903 -0.0000 -0.9569
vn -0.1951 -0.0000 -0.9808
vn -0.0000 1.0000 -0.0000
vn -0.0980 -0.0000 -0.9952
vn -0.0000 -1.0000 -0.0000
vt 1.000000 1.000000
vt 0.984375 0.500000
vt 1.000000 0.500000
vt 0.984375 1.000000
vt 0.968750 0.500000
vt 0.968750 1.000000
vt 0.953125 0.500000
vt 0.953125 1.000000
vt 0.937500 0.500000
vt 0.937500 1.000000
vt 0.921875 0.500000
vt 0.921875 1.000000
vt 0.906250 0.500000
vt 0.906250 1.000000
vt 0.890625 0.500000
vt 0.890625 1.000000
vt 0.875000 0.500000
vt 0.875000 1.000000
vt 0.859375 0.500000
vt 0.859375 1.000000
vt 0.843750 0.500000
vt 0.843750 1.000000
vt 0.828125 0.500000
vt 0.828125 1.000000
vt 0.812500 0.500000
vt 0.812500 1.000000
vt 0.796875 0.500000
vt 0.796875 1.000000
vt 0.781250 0.500000
vt 0.781250 1.000000
vt 0.765625 0.500000
vt 0.765625 1.000000
vt 0.750000 0.500000
vt 0.750000 1.000000
vt 0.734375 0.500000
vt 0.734375 1.000000
vt 0.718750 0.500000
vt 0.718750 1.000000
vt 0.703125 0.500000
vt 0.703125 1.000000
vt 0.687500 0.500000
vt 0.687500 1.000000
vt 0.671875 0.500000
vt 0.671875 1.000000
vt 0.656250 0.500000
vt 0.656250 1.000000
vt 0.640625 0.500000
vt 0.640625 1.000000
vt 0.625000 0.500000
vt 0.625000 1.000000
vt 0.609375 0.500000
vt 0.609375 1.000000
vt 0.593750 0.500000
vt 0.593750 1.000000
vt 0.578125 0.500000
vt 0.578125 1.000000
vt 0.562500 0.500000
vt 0.562500 1.000000
vt 0.546875 0.500000
vt 0.546875 1.000000
vt 0.531250 0.500000
vt 0.531250 1.000000
vt 0.515625 0.500000
vt 0.515625 1.000000
vt 0.500000 0.500000
vt 0.500000 1.000000
vt 0.484375 0.500000
vt 0.484375 1.000000
vt 0.468750 0.500000
vt 0.468750 1.000000
vt 0.453125 0.500000
vt 0.453125 1.000000
vt 0.437500 0.500000
vt 0.437500 1.000000
vt 0.421875 0.500000
vt 0.421875 1.000000
vt 0.406250 0.500000
vt 0.406250 1.000000
vt 0.390625 0.500000
vt 0.390625 1.000000
vt 0.375000 0.500000
vt 0.375000 1.000000
vt 0.359375 0.500000
vt 0.359375 1.000000
vt 0.343750 0.500000
vt 0.343750 1.000000
vt 0.328125 0.500000
vt 0.328125 1.000000
vt 0.312500 0.500000
vt 0.312500 1.000000
vt 0.296875 0.500000
vt 0.296875 1.000000
vt 0.281250 0.500000
vt 0.281250 1.000000
vt 0.265625 0.500000
vt 0.265625 1.000000
vt 0.250000 0.500000
vt 0.250000 1.000000
vt 0.234375 0.500000
vt 0.234375 1.000000
vt 0.218750 0.500000
vt 0.218750 1.000000
vt 0.203125 0.500000
vt 0.203125 1.000000
vt 0.187500 0.500000
vt 0.187500 1.000000
vt 0.171875 0.500000
vt 0.171875 1.000000
vt 0.156250 0.500000
vt 0.156250 1.000000
vt 0.140625 0.500000
vt 0.140625 1.000000
vt 0.125000 0.500000
vt 0.125000 1.000000
vt 0.109375 0.500000
vt 0.109375 1.000000
vt 0.093750 0.500000
vt 0.093750 1.000000
vt 0.078125 0.500000
vt 0.078125 1.000000
vt 0.062500 0.500000
vt 0.062500 1.000000
vt 0.046875 0.500000
vt 0.046875 1.000000
vt 0.031250 0.500000
vt 0.203178 0.014612
vt 0.485388 0.203178
vt 0.296822 0.485388
vt 0.031250 1.000000
vt 0.015625 0.500000
vt 0.015625 1.000000
vt 0.000000 0.500000
vt 0.773524 0.011156
vt 0.511156 0.226476
vt 0.726476 0.488844
vt 0.273524 0.488844
vt 0.250000 0.490000
vt 0.226476 0.488844
vt 0.203178 0.485388
vt 0.180332 0.479666
vt 0.158156 0.471731
vt 0.136865 0.461661
vt 0.116663 0.449553
vt 0.097746 0.435522
vt 0.080294 0.419706
vt 0.064478 0.402254
vt 0.050447 0.383337
vt 0.038339 0.363135
vt 0.028269 0.341844
vt 0.020334 0.319668
vt 0.014612 0.296822
vt 0.011156 0.273524
vt 0.010000 0.250000
vt 0.011156 0.226476
vt 0.014612 0.203178
vt 0.020334 0.180332
vt 0.028269 0.158156
vt 0.038339 0.136865
vt 0.050447 0.116663
vt 0.064478 0.097746
vt 0.080294 0.080294
vt 0.097746 0.064478
vt 0.116663 0.050447
vt 0.136865 0.038339
vt 0.158156 0.028269
vt 0.180332 0.020334
vt 0.226476 0.011156
vt 0.250000 0.010000
vt 0.273524 0.011156
vt 0.296822 0.014612
vt 0.319668 0.020334
vt 0.341844 0.028269
vt 0.363135 0.038339
vt 0.383337 0.050447
vt 0.402254 0.064478
vt 0.419706 0.080294
vt 0.435522 0.097746
vt 0.449553 0.116663
vt 0.461661 0.136865
vt 0.471731 0.158156
vt 0.479666 0.180332
vt 0.488844 0.226476
vt 0.490000 0.250000
vt 0.488844 0.273524
vt 0.485388 0.296822
vt 0.479666 0.319668
vt 0.471731 0.341844
vt 0.461661 0.363135
vt 0.449553 0.383337
vt 0.435522 0.402254
vt 0.419706 0.419706
vt 0.402254 0.435522
vt 0.383337 0.449553
vt 0.363135 0.461661
vt 0.341844 0.471731
vt 0.319668 0.479666
vt 0.000000 1.000000
vt 0.750000 0.490000
vt 0.773524 0.488844
vt 0.796822 0.485388
vt 0.819668 0.479666
vt 0.841844 0.471731
vt 0.863135 0.461661
vt 0.883337 0.449553
vt 0.902254 0.435522
vt 0.919706 0.419706
vt 0.935522 0.402254
vt 0.949553 0.383337
vt 0.961661 0.363135
vt 0.971731 0.341844
vt 0.979666 0.319668
vt 0.985388 0.296822
vt 0.988844 0.273524
vt 0.990000 0.250000
vt 0.988844 0.226476
vt 0.985388 0.203178
vt 0.979666 0.180332
vt 0.971731 0.158156
vt 0.961661 0.136865
vt 0.949553 0.116663
vt 0.935522 0.097746
vt 0.919706 0.080294
vt 0.902254 0.064478
vt 0.883337 0.050447
vt 0.863135 0.038339
vt 0.841844 0.028269
vt 0.819668 0.020334
vt 0.796822 0.014612
vt 0.750000 0.010000
vt 0.726476 0.011156
vt 0.703178 0.014612
vt 0.680332 0.020334
vt 0.658156 0.028269
vt 0.636865 0.038339
vt 0.616663 0.050447
vt 0.597746 0.064478
vt 0.580294 0.080294
vt 0.564478 0.097746
vt 0.550447 0.116663
vt 0.538339 0.136865
vt 0.528269 0.158156
vt 0.520334 0.180332
vt 0.514612 0.203178
vt 0.510000 0.250000
vt 0.511156 0.273524
vt 0.514612 0.296822
vt 0.520334 0.319668
vt 0.528269 0.341844
vt 0.538339 0.363135
vt 0.550447 0.383337
vt 0.564478 0.402254
vt 0.580294 0.419706
vt 0.597746 0.435522
vt 0.616663 0.449553
vt 0.636865 0.461661
vt 0.658156 0.471731
vt 0.680332 0.479666
vt 0.703178 0.485388
s 1
f 2/1/1 3/2/2 1/3/1
f 4/4/2 5/5/3 3/2/2
f 6/6/3 7/7/4 5/5/3
f 8/8/4 9/9/5 7/7/4
f 10/10/5 11/11/6 9/9/5
f 12/12/6 13/13/7 11/11/6
f 14/14/7 15/15/8 13/13/7
f 16/16/8 17/17/9 15/15/8
f 18/18/9 19/19/10 17/17/9
f 20/20/10 21/21/11 19/19/10
f 22/22/11 23/23/12 21/21/11
f 24/24/12 25/25/13 23/23/12
f 26/26/13 27/27/14 25/25/13
f 28/28/14 29/29/15 27/27/14
f 30/30/15 31/31/16 29/29/15
f 32/32/16 33/33/17 31/31/16
f 34/34/17 35/35/18 33/33/17
f 36/36/18 37/37/19 35/35/18
f 38/38/19 39/39/20 37/37/19
f 40/40/20 41/41/21 39/39/20
f 42/42/21 43/43/22 41/41/21
f 44/44/22 45/45/23 43/43/22
f 46/46/23 47/47/24 45/45/23
f 48/48/24 49/49/25 47/47/24
f 50/50/25 51/51/26 49/49/25
f 52/52/26 53/53/27 51/51/26
f 54/54/27 55/55/28 53/53/27
f 56/56/28 57/57/29 55/55/28
f 58/58/29 59/59/30 57/57/29
f 60/60/30 61/61/31 59/59/30
f 62/62/31 63/63/32 61/61/31
f 64/64/32 65/65/33 63/63/32
f 66/66/33 67/67/34 65/65/33
f 68/68/34 69/69/35 67/67/34
f 70/70/35 71/71/36 69/69/35
f 72/72/36 73/73/37 71/71/36
f 74/74/37 75/75/38 73/73/37
f 76/76/38 77/77/39 75/75/38
f 78/78/39 79/79/40 77/77/39
f 80/80/40 81/81/41 79/79/40
f 82/82/41 83/83/42 81/81/41
f 84/84/42 85/85/43 83/83/42
f 86/86/43 87/87/44 85/85/43
f 88/88/44 89/89/45 87/87/44
f 90/90/45 91/91/46 89/89/45
f 92/92/46 93/93/47 91/91/46
f 94/94/47 95/95/48 93/93/47
f 96/96/48 97/97/49 95/95/48
f 98/98/49 99/99/50 97/97/49
f 100/100/50 101/101/51 99/99/50
f 102/102/51 103/103/52 101/101/51
f 104/104/52 105/105/53 103/103/52
f 106/106/53 107/107/54 105/105/53
f 108/108/54 109/109/55 107/107/54
f 110/110/55 111/111/56 109/109/55
f 112/112/56 113/113/57 111/111/56
f 114/114/57 115/115/58 113/113/57
f 116/116/58 117/117/59 115/115/58
f 118/118/59 119/119/60 117/117/59
f 120/120/60 121/121/61 119/119/60
f 122/122/61 123/123/62 121/121/61
f 124/124/62 125/125/63 123/123/62
f 70/126/64 38/127/64 6/128/64
f 126/129/63 127/130/65 125/125/63
f 128/131/65 1/132/1 127/130/65
f 63/133/66 95/134/66 127/135/66
f 2/1/1 4/4/2 3/2/2
f 4/4/2 6/6/3 5/5/3
f 6/6/3 8/8/4 7/7/4
f 8/8/4 10/10/5 9/9/5
f 10/10/5 12/12/6 11/11/6
f 12/12/6 14/14/7 13/13/7
f 14/14/7 16/16/8 15/15/8
f 16/16/8 18/18/9 17/17/9
f 18/18/9 20/20/10 19/19/10
f 20/20/10 22/22/11 21/21/11
f 22/22/11 24/24/12 23/23/12
f 24/24/12 26/26/13 25/25/13
f 26/26/13 28/28/14 27/27/14
f 28/28/14 30/30/15 29/29/15
f 30/30/15 32/32/16 31/31/16
f 32/32/16 34/34/17 33/33/17
f 34/34/17 36/36/18 35/35/18
f 36/36/18 38/38/19 37/37/19
f 38/38/19 40/40/20 39/39/20
f 40/40/20 42/42/21 41/41/21
f 42/42/21 44/44/22 43/43/22
f 44/44/22 46/46/23 45/45/23
f 46/46/23 48/48/24 47/47/24
f 48/48/24 50/50/25 49/49/25
f 50/50/25 52/52/26 51/51/26
f 52/52/26 54/54/27 53/53/27
f 54/54/27 56/56/28 55/55/28
f 56/56/28 58/58/29 57/57/29
f 58/58/29 60/60/30 59/59/30
f 60/60/30 62/62/31 61/61/31
f 62/62/31 64/64/32 63/63/32
f 64/64/32 66/66/33 65/65/33
f 66/66/33 68/68/34 67/67/34
f 68/68/34 70/70/35 69/69/35
f 70/70/35 72/72/36 71/71/36
f 72/72/36 74/74/37 73/73/37
f 74/74/37 76/76/38 75/75/38
f 76/76/38 78/78/39 77/77/39
f 78/78/39 80/80/40 79/79/40
f 80/80/40 82/82/41 81/81/41
f 82/82/41 84/84/42 83/83/42
f 84/84/42 86/86/43 85/85/43
f 86/86/43 88/88/44 87/87/44
f 88/88/44 90/90/45 89/89/45
f 90/90/45 92/92/46 91/91/46
f 92/92/46 94/94/47 93/93/47
f 94/94/47 96/96/48 95/95/48
f 96/96/48 98/98/49 97/97/49
f 98/98/49 100/100/50 99/99/50
f 100/100/50 102/102/51 101/101/51
f 102/102/51 104/104/52 103/103/52
f 104/104/52 106/106/53 105/105/53
f 106/106/53 108/108/54 107/107/54
f 108/108/54 110/110/55 109/109/55
f 110/110/55 112/112/56 111/111/56
f 112/112/56 114/114/57 113/113/57
f 114/114/57 116/116/58 115/115/58
f 116/116/58 118/118/59 117/117/59
f 118/118/59 120/120/60 119/119/60
f 120/120/60 122/122/61 121/121/61
f 122/122/61 124/124/62 123/123/62
f 124/124/62 126/129/63 125/125/63
f 6/128/64 4/136/64 2/137/64
f 2/137/64 128/138/64 126/139/64
f 126/139/64 124/140/64 122/141/64
f 122/141/64 120/142/64 118/143/64
f 118/143/64 116/144/64 114/145/64
f 114/145/64 112/146/64 110/147/64
f 110/147/64 108/148/64 106/149/64
f 106/149/64 104/150/64 102/151/64
f 102/151/64 100/152/64 98/153/64
f 98/153/64 96/154/64 94/155/64
f 94/155/64 92/156/64 90/157/64
f 90/157/64 88/158/64 86/159/64
f 86/159/64 84/160/64 82/161/64
f 82/161/64 80/162/64 78/163/64
f 78/163/64 76/164/64 74/165/64
f 74/165/64 72/166/64 70/126/64
f 70/126/64 68/167/64 66/168/64
f 66/168/64 64/169/64 62/170/64
f 62/170/64 60/171/64 58/172/64
f 58/172/64 56/173/64 54/174/64
f 54/174/64 52/175/64 50/176/64
f 50/176/64 48/177/64 46/178/64
f 46/178/64 44/179/64 42/180/64
f 42/180/64 40/181/64 38/127/64
f 38/127/64 36/182/64 34/183/64
f 34/183/64 32/184/64 30/185/64
f 30/185/64 28/186/64 26/187/64
f 26/187/64 24/188/64 22/189/64
f 22/189/64 20/190/64 18/191/64
f 18/191/64 16/192/64 14/193/64
f 14/193/64 12/194/64 10/195/64
f 10/195/64 8/196/64 6/128/64
f 6/128/64 2/137/64 126/139/64
f 126/139/64 122/141/64 118/143/64
f 118/143/64 114/145/64 110/147/64
f 110/147/64 106/149/64 102/151/64
f 102/151/64 98/153/64 94/155/64
f 94/155/64 90/157/64 86/159/64
f 86/159/64 82/161/64 78/163/64
f 78/163/64 74/165/64 70/126/64
f 70/126/64 66/168/64 62/170/64
f 62/170/64 58/172/64 54/174/64
f 54/174/64 50/176/64 46/178/64
f 46/178/64 42/180/64 38/127/64
f 38/127/64 34/183/64 30/185/64
f 30/185/64 26/187/64 22/189/64
f 22/189/64 18/191/64 14/193/64
f 14/193/64 10/195/64 6/128/64
f 6/128/64 126/139/64 118/143/64
f 118/143/64 110/147/64 102/151/64
f 102/151/64 94/155/64 86/159/64
f 86/159/64 78/163/64 70/126/64
f 70/126/64 62/170/64 54/174/64
f 54/174/64 46/178/64 38/127/64
f 38/127/64 30/185/64 22/189/64
f 22/189/64 14/193/64 6/128/64
f 6/128/64 118/143/64 102/151/64
f 102/151/64 86/159/64 70/126/64
f 70/126/64 54/174/64 38/127/64
f 38/127/64 22/189/64 6/128/64
f 6/128/64 102/151/64 70/126/64
f 126/129/63 128/131/65 127/130/65
f 128/131/65 2/197/1 1/132/1
f 127/135/66 1/198/66 3/199/66
f 3/199/66 5/200/66 7/201/66
f 7/201/66 9/202/66 11/203/66
f 11/203/66 13/204/66 15/205/66
f 15/205/66 17/206/66 19/207/66
f 19/207/66 21/208/66 23/209/66
f 23/209/66 25/210/66 27/211/66
f 27/211/66 29/212/66 31/213/66
f 31/213/66 33/214/66 35/215/66
f 35/215/66 37/216/66 39/217/66
f 39/217/66 41/218/66 43/219/66
f 43/219/66 45/220/66 47/221/66
f 47/221/66 49/222/66 51/223/66
f 51/223/66 53/224/66 55/225/66
f 55/225/66 57/226/66 59/227/66
f 59/227/66 61/228/66 63/133/66
f 63/133/66 65/229/66 67/230/66
f 67/230/66 69/231/66 71/232/66
f 71/232/66 73/233/66 75/234/66
f 75/234/66 77/235/66 79/236/66
f 79/236/66 81/237/66 83/238/66
f 83/238/66 85/239/66 87/240/66
f 87/240/66 89/241/66 91/242/66
f 91/242/66 93/243/66 95/134/66
f 95/134/66 97/244/66 99/245/66
f 99/245/66 101/246/66 103/247/66
f 103/247/66 105/248/66 107/249/66
f 107/249/66 109/250/66 111/251/66
f 111/251/66 113/252/66 115/253/66
f 115/253/66 117/254/66 119/255/66
f 119/255/66 121/256/66 123/257/66
f 123/257/66 125/258/66 127/135/66
f 127/135/66 3/199/66 7/201/66
f 7/201/66 11/203/66 15/205/66
f 15/205/66 19/207/66 23/209/66
f 23/209/66 27/211/66 31/213/66
f 31/213/66 35/215/66 39/217/66
f 39/217/66 43/219/66 47/221/66
f 47/221/66 51/223/66 55/225/66
f 55/225/66 59/227/66 63/133/66
f 63/133/66 67/230/66 71/232/66
f 71/232/66 75/234/66 79/236/66
f 79/236/66 83/238/66 87/240/66
f 87/240/66 91/242/66 95/134/66
f 95/134/66 99/245/66 103/247/66
f 103/247/66 107/249/66 111/251/66
f 111/251/66 115/253/66 119/255/66
f 119/255/66 123/257/66 127/135/66
f 127/135/66 7/201/66 15/205/66
f 15/205/66 23/209/66 31/213/66
f 31/213/66 39/217/66 47/221/66
f 47/221/66 55/225/66 63/133/66
f 63/133/66 71/232/66 79/236/66
f 79/236/66 87/240/66 95/134/66
f 95/134/66 103/247/66 111/251/66
f 111/251/66 119/255/66 127/135/66
f 127/135/66 15/205/66 31/213/66
f 31/213/66 47/221/66 63/133/66
f 63/133/66 79/236/66 95/134/66
f 95/134/66 111/251/66 127/135/66
f 127/135/66 31/213/66 63/133/66
