# Blender 4.0.2
# www.blender.org
o Cube
v -0.599955 -0.599955 0.599955
v -0.599955 0.599955 0.599955
v -0.599955 -0.599955 -0.599955
v -0.599955 0.599955 -0.599955
v 0.599955 -0.599955 0.599955
v 0.599955 0.599955 0.599955
v 0.599955 -0.599955 -0.599955
v 0.599955 0.599955 -0.599955
v -0.676431 -0.676431 -0.405858
v -0.727552 -0.727552 -0.145510
v -0.727552 -0.727552 0.145510
v -0.676431 -0.676431 0.405858
v -0.676431 -0.405858 0.676431
v -0.727552 -0.145510 0.727552
v -0.727552 0.145510 0.727552
v -0.676431 0.405858 0.676431
v -0.676431 0.676431 0.405858
v -0.727552 0.727552 0.145510
v -0.727552 0.727552 -0.145510
v -0.676431 0.676431 -0.405858
v -0.676431 0.405858 -0.676431
v -0.727552 0.145510 -0.727552
v -0.727552 -0.145510 -0.727552
v -0.676431 -0.405858 -0.676431
v 0.405858 -0.676431 -0.676431
v 0.145510 -0.727552 -0.727552
v -0.145510 -0.727552 -0.727552
v -0.405858 -0.676431 -0.676431
v -0.405858 0.676431 -0.676431
v -0.145510 0.727552 -0.727552
v 0.145510 0.727552 -0.727552
v 0.405858 0.676431 -0.676431
v 0.676431 0.405858 -0.676431
v 0.727552 0.145510 -0.727552
v 0.727552 -0.145510 -0.727552
v 0.676431 -0.405858 -0.676431
v 0.676431 -0.676431 0.405858
v 0.727552 -0.727552 0.145510
v 0.727552 -0.727552 -0.145510
v 0.676431 -0.676431 -0.405858
v 0.676431 0.676431 -0.405858
v 0.727552 0.727552 -0.145510
v 0.727552 0.727552 0.145510
v 0.676431 0.676431 0.405858
v 0.676431 0.405858 0.676431
v 0.727552 0.145510 0.727552
v 0.727552 -0.145510 0.727552
v 0.676431 -0.405858 0.676431
v -0.405858 -0.676431 0.676431
v -0.145510 -0.727552 0.727552
v 0.145510 -0.727552 0.727552
v 0.405858 -0.676431 0.676431
v 0.405858 0.676431 0.676431
v 0.145510 0.727552 0.727552
v -0.145510 0.727552 0.727552
v -0.405858 0.676431 0.676431
v 0.475408 0.792346 -0.475408
v 0.526946 0.878244 -0.175649
v 0.526946 0.878244 0.175649
v 0.475408 0.792346 0.475408
v 0.175649 0.878244 -0.526946
v 0.199985 0.999925 -0.199985
v 0.199985 0.999925 0.199985
v 0.175649 0.878244 0.526946
v -0.175649 0.878244 -0.526946
v -0.199985 0.999925 -0.199985
v -0.199985 0.999925 0.199985
v -0.175649 0.878244 0.526946
v -0.475408 0.792346 -0.475408
v -0.526946 0.878244 -0.175649
v -0.526946 0.878244 0.175649
v -0.475408 0.792346 0.475408
v -0.475408 -0.792346 -0.475408
v -0.526946 -0.878244 -0.175649
v -0.526946 -0.878244 0.175649
v -0.475408 -0.792346 0.475408
v -0.175649 -0.878244 -0.526946
v -0.199985 -0.999925 -0.199985
v -0.199985 -0.999925 0.199985
v -0.175649 -0.878244 0.526946
v 0.175649 -0.878244 -0.526946
v 0.199985 -0.999925 -0.199985
v 0.199985 -0.999925 0.199985
v 0.175649 -0.878244 0.526946
v 0.475408 -0.792346 -0.475408
v 0.526946 -0.878244 -0.175649
v 0.526946 -0.878244 0.175649
v 0.475408 -0.792346 0.475408
v 0.475408 -0.475408 0.792346
v 0.175649 -0.526946 0.878244
v -0.175649 -0.526946 0.878244
v -0.475408 -0.475408 0.792346
v 0.526946 -0.175649 0.878244
v 0.199985 -0.199985 0.999925
v -0.199985 -0.199985 0.999925
v -0.526946 -0.175649 0.878244
v 0.526946 0.175649 0.878244
v 0.199985 0.199985 0.999925
v -0.199985 0.199985 0.999925
v -0.526946 0.175649 0.878244
v 0.475408 0.475408 0.792346
v 0.175649 0.526946 0.878244
v -0.175649 0.526946 0.878244
v -0.475408 0.475408 0.792346
v 0.792346 -0.475408 -0.475408
v 0.878244 -0.526946 -0.175649
v 0.878244 -0.526946 0.175649
v 0.792346 -0.475408 0.475408
v 0.878244 -0.175649 -0.526946
v 0.999925 -0.199985 -0.199985
v 0.999925 -0.199985 0.199985
v 0.878244 -0.175649 0.526946
v 0.878244 0.175649 -0.526946
v 0.999925 0.199985 -0.199985
v 0.999925 0.199985 0.199985
v 0.878244 0.175649 0.526946
v 0.792346 0.475408 -0.475408
v 0.878244 0.526946 -0.175649
v 0.878244 0.526946 0.175649
v 0.792346 0.475408 0.475408
v -0.475408 -0.475408 -0.792346
v -0.175649 -0.526946 -0.878244
v 0.175649 -0.526946 -0.878244
v 0.475408 -0.475408 -0.792346
v -0.526946 -0.175649 -0.878244
v -0.199985 -0.199985 -0.999925
v 0.199985 -0.199985 -0.999925
v 0.526946 -0.175649 -0.878244
v -0.526946 0.175649 -0.878244
v -0.199985 0.199985 -0.999925
v 0.199985 0.199985 -0.999925
v 0.526946 0.175649 -0.878244
v -0.475408 0.475408 -0.792346
v -0.175649 0.526946 -0.878244
v 0.175649 0.526946 -0.878244
v 0.475408 0.475408 -0.792346
v -0.792346 -0.475408 0.475408
v -0.878244 -0.526946 0.175649
v -0.878244 -0.526946 -0.175649
v -0.792346 -0.475408 -0.475408
v -0.878244 -0.175649 0.526946
v -0.999925 -0.199985 0.199985
v -0.999925 -0.199985 -0.199985
v -0.878244 -0.175649 -0.526946
v -0.878244 0.175649 0.526946
v -0.999925 0.199985 0.199985
v -0.999925 0.199985 -0.199985
v -0.878244 0.175649 -0.526946
v -0.792346 0.475408 0.475408
v -0.878244 0.526946 0.175649
v -0.878244 0.526946 -0.175649
v -0.792346 0.475408 -0.475408
vn -0.7865 0.4367 -0.4367
vn -0.5774 0.5774 -0.5774
vn -0.6564 0.3720 -0.6564
vn 0.4367 0.4367 -0.7865
vn 0.5774 0.5774 -0.5774
vn 0.6564 0.3720 -0.6564
vn 0.7865 0.4367 0.4367
vn 0.5774 0.5774 0.5774
vn 0.6564 0.3720 0.6564
vn -0.4367 0.4367 0.7865
vn -0.5774 0.5774 0.5774
vn -0.6564 0.3720 0.6564
vn 0.4367 -0.7865 0.4367
vn 0.5774 -0.5774 0.5774
vn 0.3720 -0.6564 0.6564
vn -0.4367 0.7865 0.4367
vn -0.3720 0.6564 0.6564
vn 0.4367 0.7865 0.4367
vn 0.6564 0.6564 0.3720
vn 0.1536 0.8633 0.4808
vn 0.3720 0.6564 0.6564
vn -0.1536 0.8633 0.4808
vn 0.1235 0.7017 0.7017
vn -0.1235 0.7017 0.7017
vn 0.4367 0.7865 -0.4367
vn 0.6564 0.6564 -0.3720
vn 0.4808 0.8633 -0.1536
vn 0.7017 0.7017 -0.1235
vn 0.4808 0.8633 0.1536
vn 0.7017 0.7017 0.1235
vn 0.3720 0.6564 -0.6564
vn 0.1536 0.8633 -0.4808
vn 0.1758 0.9686 -0.1758
vn 0.1758 0.9686 0.1758
vn -0.1235 0.7017 -0.7017
vn 0.1235 0.7017 -0.7017
vn -0.1536 0.8633 -0.4808
vn -0.1758 0.9686 -0.1758
vn -0.1758 0.9686 0.1758
vn -0.3720 0.6564 -0.6564
vn -0.4367 0.7865 -0.4367
vn -0.4808 0.8633 -0.1536
vn -0.6564 0.6564 -0.3720
vn -0.7017 0.7017 -0.1235
vn -0.4808 0.8633 0.1536
vn -0.6564 0.6564 0.3720
vn -0.4367 -0.7865 0.4367
vn -0.5774 -0.5774 0.5774
vn -0.6564 -0.6564 0.3720
vn -0.1536 -0.8633 0.4808
vn -0.3720 -0.6564 0.6564
vn 0.1536 -0.8633 0.4808
vn -0.1235 -0.7017 0.7017
vn 0.1235 -0.7017 0.7017
vn -0.5774 -0.5774 -0.5774
vn -0.4367 -0.7865 -0.4367
vn -0.6564 -0.6564 -0.3720
vn -0.4808 -0.8633 -0.1536
vn -0.7017 -0.7017 -0.1235
vn -0.4808 -0.8633 0.1536
vn -0.7017 -0.7017 0.1235
vn -0.3720 -0.6564 -0.6564
vn -0.1536 -0.8633 -0.4808
vn -0.1758 -0.9686 -0.1758
vn -0.1758 -0.9686 0.1758
vn 0.1235 -0.7017 -0.7017
vn -0.1235 -0.7017 -0.7017
vn 0.1536 -0.8633 -0.4808
vn 0.1758 -0.9686 -0.1758
vn 0.1758 -0.9686 0.1758
vn 0.3720 -0.6564 -0.6564
vn 0.4367 -0.7865 -0.4367
vn 0.4808 -0.8633 -0.1536
vn 0.5774 -0.5774 -0.5774
vn 0.6564 -0.6564 -0.3720
vn 0.7017 -0.7017 -0.1235
vn 0.4808 -0.8633 0.1536
vn 0.6564 -0.6564 0.3720
vn -0.4367 -0.4367 0.7865
vn -0.4808 -0.1536 0.8633
vn -0.6564 -0.3720 0.6564
vn -0.4808 0.1536 0.8633
vn -0.7017 -0.1235 0.7017
vn -0.7017 0.1235 0.7017
vn 0.4367 -0.4367 0.7865
vn 0.1536 -0.4808 0.8633
vn -0.1536 -0.4808 0.8633
vn 0.6564 -0.3720 0.6564
vn 0.4808 -0.1536 0.8633
vn 0.1758 -0.1758 0.9686
vn -0.1758 -0.1758 0.9686
vn 0.7017 0.1235 0.7017
vn 0.7017 -0.1235 0.7017
vn 0.4808 0.1536 0.8633
vn 0.1758 0.1758 0.9686
vn -0.1758 0.1758 0.9686
vn 0.4367 0.4367 0.7865
vn 0.1536 0.4808 0.8633
vn -0.1536 0.4808 0.8633
vn 0.7865 -0.4367 0.4367
vn 0.8633 -0.1536 0.4808
vn 0.8633 0.1536 0.4808
vn 0.7865 -0.4367 -0.4367
vn 0.8633 -0.4808 -0.1536
vn 0.8633 -0.4808 0.1536
vn 0.7017 -0.7017 0.1235
vn 0.6564 -0.3720 -0.6564
vn 0.8633 -0.1536 -0.4808
vn 0.9686 -0.1758 -0.1758
vn 0.9686 -0.1758 0.1758
vn 0.7017 0.1235 -0.7017
vn 0.7017 -0.1235 -0.7017
vn 0.8633 0.1536 -0.4808
vn 0.9686 0.1758 -0.1758
vn 0.9686 0.1758 0.1758
vn 0.7865 0.4367 -0.4367
vn 0.8633 0.4808 -0.1536
vn 0.8633 0.4808 0.1536
vn 0.4367 -0.4367 -0.7865
vn 0.4808 -0.1536 -0.8633
vn 0.4808 0.1536 -0.8633
vn -0.4367 -0.4367 -0.7865
vn -0.1536 -0.4808 -0.8633
vn 0.1536 -0.4808 -0.8633
vn -0.6564 -0.3720 -0.6564
vn -0.4808 -0.1536 -0.8633
vn -0.1758 -0.1758 -0.9686
vn 0.1758 -0.1758 -0.9686
vn -0.7017 0.1235 -0.7017
vn -0.7017 -0.1235 -0.7017
vn -0.4808 0.1536 -0.8633
vn -0.1758 0.1758 -0.9686
vn 0.1758 0.1758 -0.9686
vn -0.4367 0.4367 -0.7865
vn -0.1536 0.4808 -0.8633
vn 0.1536 0.4808 -0.8633
vn -0.7865 -0.4367 -0.4367
vn -0.8633 -0.1536 -0.4808
vn -0.8633 0.1536 -0.4808
vn -0.7865 -0.4367 0.4367
vn -0.8633 -0.4808 0.1536
vn -0.8633 -0.4808 -0.1536
vn -0.8633 -0.1536 0.4808
vn -0.9686 -0.1758 0.1758
vn -0.9686 -0.1758 -0.1758
vn -0.8633 0.1536 0.4808
vn -0.9686 0.1758 0.1758
vn -0.9686 0.1758 -0.1758
vn -0.7865 0.4367 0.4367
vn -0.8633 0.4808 0.1536
vn -0.7017 0.7017 0.1235
vn -0.8633 0.4808 -0.1536
vt 0.575000 0.200000
vt 0.625000 0.250000
vt 0.575000 0.250000
vt 0.575000 0.450000
vt 0.625000 0.500000
vt 0.575000 0.500000
vt 0.575000 0.700000
vt 0.625000 0.750000
vt 0.575000 0.750000
vt 0.575000 0.950000
vt 0.625000 1.000000
vt 0.575000 1.000000
vt 0.325000 0.700000
vt 0.375000 0.750000
vt 0.325000 0.750000
vt 0.825000 0.700000
vt 0.875000 0.750000
vt 0.825000 0.750000
vt 0.675000 0.700000
vt 0.625000 0.700000
vt 0.725000 0.700000
vt 0.675000 0.750000
vt 0.775000 0.700000
vt 0.725000 0.750000
vt 0.775000 0.750000
vt 0.675000 0.550000
vt 0.625000 0.550000
vt 0.675000 0.600000
vt 0.625000 0.600000
vt 0.675000 0.650000
vt 0.625000 0.650000
vt 0.675000 0.500000
vt 0.725000 0.550000
vt 0.725000 0.600000
vt 0.725000 0.650000
vt 0.775000 0.500000
vt 0.725000 0.500000
vt 0.775000 0.550000
vt 0.775000 0.600000
vt 0.775000 0.650000
vt 0.825000 0.500000
vt 0.825000 0.550000
vt 0.825000 0.600000
vt 0.875000 0.500000
vt 0.875000 0.550000
vt 0.875000 0.600000
vt 0.825000 0.650000
vt 0.875000 0.700000
vt 0.175000 0.700000
vt 0.125000 0.750000
vt 0.125000 0.700000
vt 0.225000 0.700000
vt 0.175000 0.750000
vt 0.275000 0.700000
vt 0.225000 0.750000
vt 0.275000 0.750000
vt 0.125000 0.500000
vt 0.175000 0.550000
vt 0.125000 0.550000
vt 0.175000 0.600000
vt 0.125000 0.600000
vt 0.175000 0.650000
vt 0.125000 0.650000
vt 0.175000 0.500000
vt 0.225000 0.550000
vt 0.225000 0.600000
vt 0.225000 0.650000
vt 0.275000 0.500000
vt 0.225000 0.500000
vt 0.275000 0.550000
vt 0.275000 0.600000
vt 0.275000 0.650000
vt 0.325000 0.500000
vt 0.325000 0.550000
vt 0.325000 0.600000
vt 0.375000 0.500000
vt 0.375000 0.550000
vt 0.375000 0.600000
vt 0.325000 0.650000
vt 0.375000 0.700000
vt 0.425000 0.950000
vt 0.375000 1.000000
vt 0.375000 0.950000
vt 0.475000 0.950000
vt 0.425000 1.000000
vt 0.525000 0.950000
vt 0.475000 1.000000
vt 0.525000 1.000000
vt 0.425000 0.800000
vt 0.375000 0.800000
vt 0.425000 0.850000
vt 0.375000 0.850000
vt 0.425000 0.900000
vt 0.375000 0.900000
vt 0.425000 0.750000
vt 0.475000 0.800000
vt 0.475000 0.850000
vt 0.475000 0.900000
vt 0.525000 0.750000
vt 0.475000 0.750000
vt 0.525000 0.800000
vt 0.525000 0.850000
vt 0.525000 0.900000
vt 0.575000 0.800000
vt 0.575000 0.850000
vt 0.625000 0.800000
vt 0.625000 0.850000
vt 0.575000 0.900000
vt 0.625000 0.950000
vt 0.425000 0.700000
vt 0.475000 0.700000
vt 0.525000 0.700000
vt 0.425000 0.550000
vt 0.425000 0.600000
vt 0.425000 0.650000
vt 0.375000 0.650000
vt 0.425000 0.500000
vt 0.475000 0.550000
vt 0.475000 0.600000
vt 0.475000 0.650000
vt 0.525000 0.500000
vt 0.475000 0.500000
vt 0.525000 0.550000
vt 0.525000 0.600000
vt 0.525000 0.650000
vt 0.575000 0.550000
vt 0.575000 0.600000
vt 0.575000 0.650000
vt 0.425000 0.450000
vt 0.375000 0.450000
vt 0.475000 0.450000
vt 0.525000 0.450000
vt 0.375000 0.250000
vt 0.425000 0.300000
vt 0.375000 0.300000
vt 0.425000 0.350000
vt 0.375000 0.350000
vt 0.425000 0.400000
vt 0.375000 0.400000
vt 0.425000 0.250000
vt 0.475000 0.300000
vt 0.475000 0.350000
vt 0.475000 0.400000
vt 0.525000 0.250000
vt 0.475000 0.250000
vt 0.525000 0.300000
vt 0.525000 0.350000
vt 0.525000 0.400000
vt 0.575000 0.300000
vt 0.575000 0.350000
vt 0.625000 0.300000
vt 0.625000 0.350000
vt 0.575000 0.400000
vt 0.625000 0.450000
vt 0.425000 0.200000
vt 0.375000 0.200000
vt 0.475000 0.200000
vt 0.525000 0.200000
vt 0.375000 0.000000
vt 0.425000 0.050000
vt 0.375000 0.050000
vt 0.425000 0.100000
vt 0.375000 0.100000
vt 0.425000 0.150000
vt 0.375000 0.150000
vt 0.425000 0.000000
vt 0.475000 0.050000
vt 0.475000 0.100000
vt 0.475000 0.150000
vt 0.525000 0.000000
vt 0.475000 0.000000
vt 0.525000 0.050000
vt 0.525000 0.100000
vt 0.525000 0.150000
vt 0.575000 0.000000
vt 0.575000 0.050000
vt 0.575000 0.100000
vt 0.625000 0.000000
vt 0.625000 0.050000
vt 0.625000 0.100000
vt 0.575000 0.150000
vt 0.625000 0.200000
vt 0.875000 0.650000
vt 0.625000 0.900000
vt 0.625000 0.400000
vt 0.625000 0.150000
s 1
f 152/1/1 4/2/2 21/3/3
f 136/4/4 8/5/5 33/6/6
f 120/7/7 6/8/8 45/9/9
f 104/10/10 2/11/11 16/12/12
f 88/13/13 5/14/14 52/15/15
f 72/16/16 2/17/11 56/18/17
f 60/19/18 6/8/8 44/20/19
f 64/21/20 53/22/21 60/19/18
f 68/23/22 54/24/23 64/21/20
f 68/23/22 56/18/17 55/25/24
f 8/5/5 57/26/25 41/27/26
f 41/27/26 58/28/27 42/29/28
f 42/29/28 59/30/29 43/31/30
f 59/30/29 44/20/19 43/31/30
f 32/32/31 61/33/32 57/26/25
f 57/26/25 62/34/33 58/28/27
f 62/34/33 59/30/29 58/28/27
f 63/35/34 60/19/18 59/30/29
f 30/36/35 61/33/32 31/37/36
f 65/38/37 62/34/33 61/33/32
f 66/39/38 63/35/34 62/34/33
f 67/40/39 64/21/20 63/35/34
f 29/41/40 65/38/37 30/36/35
f 69/42/41 66/39/38 65/38/37
f 70/43/42 67/40/39 66/39/38
f 67/40/39 72/16/16 68/23/22
f 4/44/2 69/42/41 29/41/40
f 20/45/43 70/43/42 69/42/41
f 19/46/44 71/47/45 70/43/42
f 71/47/45 17/48/46 72/16/16
f 76/49/47 1/50/48 12/51/49
f 80/52/50 49/53/51 76/49/47
f 84/54/52 50/55/53 80/52/50
f 84/54/52 52/15/15 51/56/54
f 3/57/55 73/58/56 9/59/57
f 9/59/57 74/60/58 10/61/59
f 10/61/59 75/62/60 11/63/61
f 75/62/60 12/51/49 11/63/61
f 28/64/62 77/65/63 73/58/56
f 73/58/56 78/66/64 74/60/58
f 78/66/64 75/62/60 74/60/58
f 79/67/65 76/49/47 75/62/60
f 26/68/66 77/65/63 27/69/67
f 81/70/68 78/66/64 77/65/63
f 82/71/69 79/67/65 78/66/64
f 83/72/70 80/52/50 79/67/65
f 25/73/71 81/70/68 26/68/66
f 85/74/72 82/71/69 81/70/68
f 86/75/73 83/72/70 82/71/69
f 83/72/70 88/13/13 84/54/52
f 7/76/74 85/74/72 25/73/71
f 40/77/75 86/75/73 85/74/72
f 39/78/76 87/79/77 86/75/73
f 87/79/77 37/80/78 88/13/13
f 92/81/79 1/82/48 49/83/51
f 96/84/80 13/85/81 92/81/79
f 100/86/82 14/87/83 96/84/80
f 100/86/82 16/12/12 15/88/84
f 5/14/14 89/89/85 52/90/15
f 52/90/15 90/91/86 51/92/54
f 51/92/54 91/93/87 50/94/53
f 91/93/87 49/83/51 50/94/53
f 48/95/88 93/96/89 89/89/85
f 89/89/85 94/97/90 90/91/86
f 94/97/90 91/93/87 90/91/86
f 95/98/91 92/81/79 91/93/87
f 46/99/92 93/96/89 47/100/93
f 97/101/94 94/97/90 93/96/89
f 98/102/95 95/98/91 94/97/90
f 99/103/96 96/84/80 95/98/91
f 45/9/9 97/101/94 46/99/92
f 101/104/97 98/102/95 97/101/94
f 102/105/98 99/103/96 98/102/95
f 99/103/96 104/10/10 100/86/82
f 6/8/8 101/104/97 45/9/9
f 53/106/21 102/105/98 101/104/97
f 54/107/23 103/108/99 102/105/98
f 103/108/99 56/109/17 104/10/10
f 108/110/100 5/14/14 37/80/78
f 112/111/101 48/95/88 108/110/100
f 116/112/102 47/100/93 112/111/101
f 116/112/102 45/9/9 46/99/92
f 7/76/74 105/113/103 40/77/75
f 40/77/75 106/114/104 39/78/76
f 39/78/76 107/115/105 38/116/106
f 107/115/105 37/80/78 38/116/106
f 36/117/107 109/118/108 105/113/103
f 105/113/103 110/119/109 106/114/104
f 110/119/109 107/115/105 106/114/104
f 111/120/110 108/110/100 107/115/105
f 34/121/111 109/118/108 35/122/112
f 113/123/113 110/119/109 109/118/108
f 114/124/114 111/120/110 110/119/109
f 115/125/115 112/111/101 111/120/110
f 33/6/6 113/123/113 34/121/111
f 117/126/116 114/124/114 113/123/113
f 118/127/117 115/125/115 114/124/114
f 115/125/115 120/7/7 116/112/102
f 8/5/5 117/126/116 33/6/6
f 41/27/26 118/127/117 117/126/116
f 42/29/28 119/128/118 118/127/117
f 119/128/118 44/20/19 120/7/7
f 124/129/119 7/76/74 25/130/71
f 128/131/120 36/117/107 124/129/119
f 132/132/121 35/122/112 128/131/120
f 132/132/121 33/6/6 34/121/111
f 3/133/55 121/134/122 28/135/62
f 28/135/62 122/136/123 27/137/67
f 27/137/67 123/138/124 26/139/66
f 123/138/124 25/130/71 26/139/66
f 24/140/125 125/141/126 121/134/122
f 121/134/122 126/142/127 122/136/123
f 126/142/127 123/138/124 122/136/123
f 127/143/128 124/129/119 123/138/124
f 22/144/129 125/141/126 23/145/130
f 129/146/131 126/142/127 125/141/126
f 130/147/132 127/143/128 126/142/127
f 131/148/133 128/131/120 127/143/128
f 21/3/3 129/146/131 22/144/129
f 133/149/134 130/147/132 129/146/131
f 134/150/135 131/148/133 130/147/132
f 131/148/133 136/4/4 132/132/121
f 4/2/2 133/149/134 21/3/3
f 29/151/40 134/150/135 133/149/134
f 30/152/35 135/153/136 134/150/135
f 135/153/136 32/154/31 136/4/4
f 140/155/137 3/133/55 9/156/57
f 144/157/138 24/140/125 140/155/137
f 148/158/139 23/145/130 144/157/138
f 148/158/139 21/3/3 22/144/129
f 1/159/48 137/160/140 12/161/49
f 12/161/49 138/162/141 11/163/61
f 11/163/61 139/164/142 10/165/59
f 139/164/142 9/156/57 10/165/59
f 13/166/81 141/167/143 137/160/140
f 137/160/140 142/168/144 138/162/141
f 142/168/144 139/164/142 138/162/141
f 143/169/145 140/155/137 139/164/142
f 15/170/84 141/167/143 14/171/83
f 145/172/146 142/168/144 141/167/143
f 146/173/147 143/169/145 142/168/144
f 147/174/148 144/157/138 143/169/145
f 16/175/12 145/172/146 15/170/84
f 149/176/149 146/173/147 145/172/146
f 150/177/150 147/174/148 146/173/147
f 147/174/148 152/1/1 148/158/139
f 2/178/11 149/176/149 16/175/12
f 17/179/46 150/177/150 149/176/149
f 18/180/151 151/181/152 150/177/150
f 151/181/152 20/182/43 152/1/1
f 152/1/1 20/182/43 4/2/2
f 136/4/4 32/154/31 8/5/5
f 120/7/7 44/20/19 6/8/8
f 104/10/10 56/109/17 2/11/11
f 88/13/13 37/80/78 5/14/14
f 72/16/16 17/48/46 2/17/11
f 60/19/18 53/22/21 6/8/8
f 64/21/20 54/24/23 53/22/21
f 68/23/22 55/25/24 54/24/23
f 68/23/22 72/16/16 56/18/17
f 8/5/5 32/32/31 57/26/25
f 41/27/26 57/26/25 58/28/27
f 42/29/28 58/28/27 59/30/29
f 59/30/29 60/19/18 44/20/19
f 32/32/31 31/37/36 61/33/32
f 57/26/25 61/33/32 62/34/33
f 62/34/33 63/35/34 59/30/29
f 63/35/34 64/21/20 60/19/18
f 30/36/35 65/38/37 61/33/32
f 65/38/37 66/39/38 62/34/33
f 66/39/38 67/40/39 63/35/34
f 67/40/39 68/23/22 64/21/20
f 29/41/40 69/42/41 65/38/37
f 69/42/41 70/43/42 66/39/38
f 70/43/42 71/47/45 67/40/39
f 67/40/39 71/47/45 72/16/16
f 4/44/2 20/45/43 69/42/41
f 20/45/43 19/46/44 70/43/42
f 19/46/44 18/183/151 71/47/45
f 71/47/45 18/183/151 17/48/46
f 76/49/47 49/53/51 1/50/48
f 80/52/50 50/55/53 49/53/51
f 84/54/52 51/56/54 50/55/53
f 84/54/52 88/13/13 52/15/15
f 3/57/55 28/64/62 73/58/56
f 9/59/57 73/58/56 74/60/58
f 10/61/59 74/60/58 75/62/60
f 75/62/60 76/49/47 12/51/49
f 28/64/62 27/69/67 77/65/63
f 73/58/56 77/65/63 78/66/64
f 78/66/64 79/67/65 75/62/60
f 79/67/65 80/52/50 76/49/47
f 26/68/66 81/70/68 77/65/63
f 81/70/68 82/71/69 78/66/64
f 82/71/69 83/72/70 79/67/65
f 83/72/70 84/54/52 80/52/50
f 25/73/71 85/74/72 81/70/68
f 85/74/72 86/75/73 82/71/69
f 86/75/73 87/79/77 83/72/70
f 83/72/70 87/79/77 88/13/13
f 7/76/74 40/77/75 85/74/72
f 40/77/75 39/78/76 86/75/73
f 39/78/76 38/116/106 87/79/77
f 87/79/77 38/116/106 37/80/78
f 92/81/79 13/85/81 1/82/48
f 96/84/80 14/87/83 13/85/81
f 100/86/82 15/88/84 14/87/83
f 100/86/82 104/10/10 16/12/12
f 5/14/14 48/95/88 89/89/85
f 52/90/15 89/89/85 90/91/86
f 51/92/54 90/91/86 91/93/87
f 91/93/87 92/81/79 49/83/51
f 48/95/88 47/100/93 93/96/89
f 89/89/85 93/96/89 94/97/90
f 94/97/90 95/98/91 91/93/87
f 95/98/91 96/84/80 92/81/79
f 46/99/92 97/101/94 93/96/89
f 97/101/94 98/102/95 94/97/90
f 98/102/95 99/103/96 95/98/91
f 99/103/96 100/86/82 96/84/80
f 45/9/9 101/104/97 97/101/94
f 101/104/97 102/105/98 98/102/95
f 102/105/98 103/108/99 99/103/96
f 99/103/96 103/108/99 104/10/10
f 6/8/8 53/106/21 101/104/97
f 53/106/21 54/107/23 102/105/98
f 54/107/23 55/184/24 103/108/99
f 103/108/99 55/184/24 56/109/17
f 108/110/100 48/95/88 5/14/14
f 112/111/101 47/100/93 48/95/88
f 116/112/102 46/99/92 47/100/93
f 116/112/102 120/7/7 45/9/9
f 7/76/74 36/117/107 105/113/103
f 40/77/75 105/113/103 106/114/104
f 39/78/76 106/114/104 107/115/105
f 107/115/105 108/110/100 37/80/78
f 36/117/107 35/122/112 109/118/108
f 105/113/103 109/118/108 110/119/109
f 110/119/109 111/120/110 107/115/105
f 111/120/110 112/111/101 108/110/100
f 34/121/111 113/123/113 109/118/108
f 113/123/113 114/124/114 110/119/109
f 114/124/114 115/125/115 111/120/110
f 115/125/115 116/112/102 112/111/101
f 33/6/6 117/126/116 113/123/113
f 117/126/116 118/127/117 114/124/114
f 118/127/117 119/128/118 115/125/115
f 115/125/115 119/128/118 120/7/7
f 8/5/5 41/27/26 117/126/116
f 41/27/26 42/29/28 118/127/117
f 42/29/28 43/31/30 119/128/118
f 119/128/118 43/31/30 44/20/19
f 124/129/119 36/117/107 7/76/74
f 128/131/120 35/122/112 36/117/107
f 132/132/121 34/121/111 35/122/112
f 132/132/121 136/4/4 33/6/6
f 3/133/55 24/140/125 121/134/122
f 28/135/62 121/134/122 122/136/123
f 27/137/67 122/136/123 123/138/124
f 123/138/124 124/129/119 25/130/71
f 24/140/125 23/145/130 125/141/126
f 121/134/122 125/141/126 126/142/127
f 126/142/127 127/143/128 123/138/124
f 127/143/128 128/131/120 124/129/119
f 22/144/129 129/146/131 125/141/126
f 129/146/131 130/147/132 126/142/127
f 130/147/132 131/148/133 127/143/128
f 131/148/133 132/132/121 128/131/120
f 21/3/3 133/149/134 129/146/131
f 133/149/134 134/150/135 130/147/132
f 134/150/135 135/153/136 131/148/133
f 131/148/133 135/153/136 136/4/4
f 4/2/2 29/151/40 133/149/134
f 29/151/40 30/152/35 134/150/135
f 30/152/35 31/185/36 135/153/136
f 135/153/136 31/185/36 32/154/31
f 140/155/137 24/140/125 3/133/55
f 144/157/138 23/145/130 24/140/125
f 148/158/139 22/144/129 23/145/130
f 148/158/139 152/1/1 21/3/3
f 1/159/48 13/166/81 137/160/140
f 12/161/49 137/160/140 138/162/141
f 11/163/61 138/162/141 139/164/142
f 139/164/142 140/155/137 9/156/57
f 13/166/81 14/171/83 141/167/143
f 137/160/140 141/167/143 142/168/144
f 142/168/144 143/169/145 139/164/142
f 143/169/145 144/157/138 140/155/137
f 15/170/84 145/172/146 141/167/143
f 145/172/146 146/173/147 142/168/144
f 146/173/147 147/174/148 143/169/145
f 147/174/148 148/158/139 144/157/138
f 16/175/12 149/176/149 145/172/146
f 149/176/149 150/177/150 146/173/147
f 150/177/150 151/181/152 147/174/148
f 147/174/148 151/181/152 152/1/1
f 2/178/11 17/179/46 149/176/149
f 17/179/46 18/180/151 150/177/150
f 18/180/151 19/186/44 151/181/152
f 151/181/152 19/186/44 20/182/43
