# Blender 4.0.2
# www.blender.org
o Cube.050
v -0.879391 -1.000000 0.879391
v -1.000000 1.000000 1.000000
v -0.879391 -1.000000 -0.879391
v -1.000000 1.000000 -1.000000
v 0.879391 -1.000000 0.879391
v 1.000000 1.000000 1.000000
v 0.879391 -1.000000 -0.879391
v 1.000000 1.000000 -1.000000
v -0.879391 -0.793314 0.879391
v -1.000000 0.793314 1.000000
v -1.000000 0.793314 -1.000000
v -0.879391 -0.793314 -0.879391
v 1.000000 0.793314 -1.000000
v 0.879391 -0.793314 -0.879391
v 1.000000 0.793314 1.000000
v 0.879391 -0.793314 0.879391
v -0.789258 -0.793314 0.789258
v -0.897505 0.793314 0.897505
v -0.897505 0.793314 -0.897505
v -0.789258 -0.793314 -0.789258
v 0.897505 0.793314 -0.897505
v 0.789258 -0.793314 -0.789258
v 0.897505 0.793314 0.897505
v 0.789258 -0.793314 0.789258
vn -1.0000 -0.0000 -0.0000
vn -0.0000 -0.0000 -1.0000
vn 1.0000 -0.0000 -0.0000
vn -0.0000 -0.0000 1.0000
vn -0.0000 -1.0000 -0.0000
vn -0.0000 1.0000 -0.0000
vn -0.0000 -0.0681 0.9977
vn 0.9977 -0.0681 -0.0000
vn -0.0000 -0.0681 -0.9977
vn -0.9977 -0.0681 -0.0000
vt 0.350299 0.343743
vt 0.385475 0.003278
vt 0.385475 0.343743
vt 0.392030 0.343743
vt 0.427206 0.003278
vt 0.427206 0.343743
vt 0.433762 0.343743
vt 0.468938 0.003278
vt 0.468938 0.343743
vt 0.475493 0.343743
vt 0.510669 0.003278
vt 0.510669 0.343743
vt 0.627299 0.961826
vt 0.926701 0.662424
vt 0.926701 0.961826
vt 0.003278 0.343743
vt 0.343743 0.003278
vt 0.343743 0.343743
vt 0.794225 0.302680
vt 0.829401 0.003278
vt 0.829401 0.302680
vt 0.003278 0.690764
vt 0.326295 0.673316
vt 0.343743 0.690764
vt 0.835956 0.302680
vt 0.871132 0.003278
vt 0.871132 0.302680
vt 0.326295 0.367747
vt 0.343743 0.350299
vt 0.877688 0.302680
vt 0.912864 0.003278
vt 0.912864 0.302680
vt 0.302680 0.697320
vt 0.018622 0.712664
vt 0.003278 0.697320
vt 0.904299 0.649701
vt 0.939475 0.350299
vt 0.939475 0.649701
vt 0.302680 0.996722
vt 0.287336 0.712664
vt 0.350299 0.655868
vt 0.620743 0.368726
vt 0.620743 0.637441
vt 0.517225 0.308847
vt 0.787669 0.021705
vt 0.787669 0.290420
vt 0.627299 0.655868
vt 0.897744 0.368726
vt 0.897744 0.637441
vt 0.350299 0.967993
vt 0.620743 0.680851
vt 0.620743 0.949566
vt 0.003278 0.350299
vt 0.020726 0.673316
vt 0.020726 0.367747
vt 0.018622 0.981379
vt 0.003278 0.996722
vt 0.287336 0.981379
vt 0.350299 0.003278
vt 0.392030 0.003278
vt 0.433762 0.003278
vt 0.475493 0.003278
vt 0.627299 0.662424
vt 0.003278 0.003278
vt 0.794225 0.003278
vt 0.835956 0.003278
vt 0.877688 0.003278
vt 0.904299 0.350299
vt 0.350299 0.350299
vt 0.517225 0.003278
vt 0.627299 0.350299
vt 0.350299 0.662424
s 0
f 2/1/1 11/2/1 10/3/1
f 4/4/2 13/5/2 11/6/2
f 8/7/3 15/8/3 13/9/3
f 6/10/4 10/11/4 15/12/4
f 7/13/5 1/14/5 3/15/5
f 4/16/6 6/17/6 8/18/6
f 16/19/4 1/20/4 5/21/4
f 13/22/5 19/23/5 11/24/5
f 14/25/3 5/26/3 7/27/3
f 11/24/5 18/28/5 10/29/5
f 12/30/2 7/31/2 3/32/2
f 16/33/6 17/34/6 9/35/6
f 9/36/1 3/37/1 1/38/1
f 14/39/6 24/40/6 16/33/6
f 23/41/7 17/42/7 24/43/7
f 21/44/8 24/45/8 22/46/8
f 19/47/9 22/48/9 20/49/9
f 18/50/10 20/51/10 17/52/10
f 15/53/5 21/54/5 13/22/5
f 10/29/5 23/55/5 15/53/5
f 9/35/6 20/56/6 12/57/6
f 12/57/6 22/58/6 14/39/6
f 2/1/1 4/59/1 11/2/1
f 4/4/2 8/60/2 13/5/2
f 8/7/3 6/61/3 15/8/3
f 6/10/4 2/62/4 10/11/4
f 7/13/5 5/63/5 1/14/5
f 4/16/6 2/64/6 6/17/6
f 16/19/4 9/65/4 1/20/4
f 13/22/5 21/54/5 19/23/5
f 14/25/3 16/66/3 5/26/3
f 11/24/5 19/23/5 18/28/5
f 12/30/2 14/67/2 7/31/2
f 16/33/6 24/40/6 17/34/6
f 9/36/1 12/68/1 3/37/1
f 14/39/6 22/58/6 24/40/6
f 23/41/7 18/69/7 17/42/7
f 21/44/8 23/70/8 24/45/8
f 19/47/9 21/71/9 22/48/9
f 18/50/10 19/72/10 20/51/10
f 15/53/5 23/55/5 21/54/5
f 10/29/5 18/28/5 23/55/5
f 9/35/6 17/34/6 20/56/6
f 12/57/6 20/56/6 22/58/6
